<?xml version="1.0" encoding="UTF-8" standalone="no"?>
<svg
   version="1.1"
   id="Layer_1"
   x="0px"
   y="0px"
   viewBox="0 0 113.98 122.88"
   style="enable-background:new 0 0 113.98 122.88"
   xml:space="preserve"
   sodipodi:docname="Logo-dark.svg"
   inkscape:version="1.3.2 (091e20e, 2023-11-25, custom)"
   xmlns:inkscape="http://www.inkscape.org/namespaces/inkscape"
   xmlns:sodipodi="http://sodipodi.sourceforge.net/DTD/sodipodi-0.dtd"
   xmlns="http://www.w3.org/2000/svg"
   xmlns:svg="http://www.w3.org/2000/svg"><defs
     id="defs1" /><sodipodi:namedview
     id="namedview1"
     pagecolor="#ffffff"
     bordercolor="#000000"
     borderopacity="0.25"
     inkscape:showpageshadow="2"
     inkscape:pageopacity="0.0"
     inkscape:pagecheckerboard="0"
     inkscape:deskcolor="#d1d1d1"
     inkscape:zoom="5.1732504"
     inkscape:cx="27.835498"
     inkscape:cy="58.280573"
     inkscape:window-width="1920"
     inkscape:window-height="1137"
     inkscape:window-x="-8"
     inkscape:window-y="-8"
     inkscape:window-maximized="1"
     inkscape:current-layer="Layer_1" /><style
     type="text/css"
     id="style1">.st0{fill-rule:evenodd;clip-rule:evenodd;}</style><g
     id="g1"><path
       class="st0"
       d="M79.21,84.71c-0.84-0.76-1.98-1.74-3.18-2.78c-2.61-2.24-5.51-4.73-6.86-6.42l-0.13,0.09 c-2.76,1.89-6.17,3.15-10.83,3.14c-4.35-0.01-7.62-1.22-10.31-3.01c-0.66-0.44-1.27-0.91-1.86-1.4c-1.33,1.74-4.59,4.51-7.49,6.97 c-1.77,1.5-3.4,2.88-4.26,3.72c-3,3.75-5.65,7.75-7.88,12.22l9.23-0.23l21.23,18.46l21.23-18.46l9.23,0.23 C85.05,92.64,82.32,88.55,79.21,84.71L79.21,84.71z M40.79,65.37c2.56,1.66,5.38,2.99,8.46,3.97c0.31-0.7,0.74-1.32,1.36-1.8 c1.86-1.44,7.31-1.3,8.99,0.09c1.41,1.17,1.43,3.85,0.39,5.25c-1.8,2.42-8.34,1.14-12.25,0.08c0.59,0.51,1.21,0.99,1.86,1.43 c2.26,1.51,5,2.53,8.62,2.53c3.92,0.01,6.79-1.05,9.12-2.64c0.43-0.3,0.85-0.61,1.26-0.95c0.13-0.22,0.33-0.4,0.58-0.5 c1.6-1.42,2.99-3.08,4.37-4.74l2.46-2.95c0.3-0.36,0.4-0.48,0.51-0.61c0.3-0.35,0.64-0.75,0.97-1.16c0.09-0.11,0.21-0.21,0.35-0.28 c0.4-1.3,0.7-2.66,0.91-4.09c0.7-4.67,0.72-8.3-1.38-12.6c-1.82-3.71-4.38-5.64-7.17-7.02c3.01,3.36,5.5,6.62,4.85,9.3 c-3.68-4.04-7.47-7.57-11.4-10.48c-8.21-4.24-13.04-9.99-15.19-16.95C36.29,33.4,34.17,47.62,38.68,63.09 c0.16,0.07,0.3,0.17,0.4,0.29L40.79,65.37L40.79,65.37z M42.86,71.17c-3.04-1.52-5.9-3.76-8.6-5.99l-4.94,0.13 c-0.68-0.78-1.25-1.68-1.73-2.69c-0.39-0.04-0.78-0.12-1.16-0.24c-4.75-1.49-8.69-12.05-7.91-17.03c0.44-2.82,1.44-3.84,3.06-4.46 c-0.08-0.23-0.12-0.47-0.12-0.73V29.53c0-4,1.2-7.93,3.15-11.49c2.13-3.91,5.17-7.4,8.49-10.04c6.78-5.41,15.56-8.09,24.29-8 c8.66,0.09,17.3,2.92,23.91,8.53c3.19,2.71,5.88,6.26,7.76,10.18c1.83,3.82,2.89,8,2.89,12.11v8.78c0,1.25-1.01,2.26-2.26,2.26 c-0.72,0-1.36-0.33-1.77-0.86c1.11,8.34,0.07,16.92-3.26,24.04h-5.63c-0.13,0.15-0.25,0.3-0.37,0.44l-0.5,0.59l-2.46,2.95 c-1.43,1.72-2.88,3.45-4.59,4.96c0.9,1.18,3.9,3.75,6.56,6.04c0.86,0.74,1.7,1.46,2.43,2.1c7.29,2.84,14.41,5.75,19.94,9.21 c4.27,2.67,6.47,4.69,8.2,7.93c2.73,5.12,4.88,10.8,5.52,17.54c0.57,6.03,0.52,5.76-5.27,5.88c-30.52,0.61-73.02-0.51-102.88,0 c-5.43,0.09-5.99,0.48-5.42-7.25c1.85-8.77,0.8-7.61,5.37-16.17c1.73-3.24,3.93-5.25,8.2-7.93c5.56-3.49,12.72-6.41,20.06-9.26 c0.9-0.8,1.99-1.73,3.14-2.71c3.2-2.72,6.87-5.83,7.28-6.75C43.76,72.15,43.3,71.67,42.86,71.17L42.86,71.17z M87.42,38.05v-7.22 c0-3.44-0.89-6.96-2.43-10.17c-1.6-3.35-3.9-6.37-6.61-8.68C72.59,7.06,64.99,4.58,57.34,4.5c-7.74-0.08-15.5,2.28-21.45,7.03 c-2.88,2.3-5.51,5.3-7.34,8.67c-1.6,2.93-2.58,6.12-2.58,9.34v9.09c2.45-11.79,7.45-20.38,15.22-25.51 c5.72-3.78,9.13-3.99,15.8-3.99c5.83,0,9.4-0.13,14.37,3.14C79.94,17.91,85.38,27.63,87.42,38.05L87.42,38.05z M49.73,104.51 l4.21-14.6l-2.06-2.26c-0.93-1.36-1.13-2.54-0.62-3.56c1.12-2.21,3.43-1.8,5.59-1.8c2.26,0,5.05-0.43,5.76,2.4 c0.24,0.95-0.06,1.94-0.72,2.96l-2.06,2.26l4.21,14.6l-7.15,5.65L49.73,104.51L49.73,104.51z"
       id="path1" /></g><path
     style="fill:#ffffff;stroke-width:0.193302;-inkscape-stroke:none"
     d="m 30.884376,122.55504 -29.522519,-0.0982 -0.53595194,-0.53542 c -0.52676493,-0.52625 -0.5370231,-0.58131 -0.59844016,-3.21214 -0.0582545,-2.49536 -0.008276,-2.95021 0.73766031,-6.7134 0.44008169,-2.22018 1.01110559,-4.66692 1.26894199,-5.43719 0.5677573,-1.69614 3.0958847,-6.797173 4.2711145,-8.617876 2.9755366,-4.6098 10.6012853,-9.167639 24.4644693,-14.622186 l 2.954862,-1.162608 3.286135,-2.827688 c 4.687397,-4.033462 6.820215,-6.016598 6.966541,-6.477626 0.158221,-0.49851 -0.804701,-1.563346 -1.940687,-2.146084 -1.321695,-0.678003 -3.941284,-2.467787 -5.924933,-4.048093 l -1.900105,-1.513752 h -2.541791 c -2.851501,0 -2.625653,0.104012 -3.672604,-1.691393 -0.42105,-0.722057 -0.711931,-1.016062 -1.008256,-1.019081 -0.66723,-0.0068 -1.95018,-0.671164 -2.828597,-1.464762 -2.974095,-2.686916 -5.803218,-9.533034 -5.803218,-14.043047 0,-2.719832 0.829421,-4.697103 2.322281,-5.536139 l 0.770553,-0.433074 V 34.1268 c 0,-5.32918 0.06511,-7.17176 0.29656,-8.391835 C 23.575723,17.145828 30.376797,8.6932788 39.222845,4.2633475 44.744441,1.4982378 50.449709,0.18068756 56.927459,0.17471913 73.980192,0.15900719 87.508526,10.013041 91.186877,25.129269 c 0.4665,1.917085 0.498685,2.38486 0.580194,8.432833 0.09534,7.074139 0.06457,7.294623 -1.102075,7.897919 -0.761585,0.393832 -1.330766,0.368192 -2.088996,-0.0941 -0.778153,-0.474438 -0.872585,-0.479367 -0.732574,-0.03823 0.250293,0.788605 0.426585,6.190708 0.286385,8.775688 -0.246143,4.538359 -1.164011,8.880647 -2.719341,12.864774 L 84.636989,64.9495 h -2.855817 -2.855818 l -2.616751,3.141158 c -1.439214,1.727637 -3.24634,3.772493 -4.015835,4.544122 l -1.399084,1.402965 1.288329,1.244695 c 0.70858,0.684584 2.757545,2.518081 4.553254,4.074439 l 3.264924,2.829741 3.734497,1.498841 c 13.39964,5.377948 20.394472,9.584945 23.485812,14.12539 0.98822,1.451474 2.85833,5.356879 3.88765,8.118689 1.56917,4.21035 2.42001,8.2433 2.67867,12.69687 0.1417,2.43969 -0.0291,3.14234 -0.86315,3.55128 -1.13312,0.55555 -12.59919,0.60829 -82.039294,0.37736 z m 36.695583,-16.2389 10.557962,-9.181851 4.472331,0.06961 c 2.45978,0.03829 4.537569,0.108659 4.617306,0.156385 1.01332,0.606526 -3.112656,-6.368702 -6.249626,-10.565396 -1.293894,-1.730995 -2.159524,-2.611785 -4.791266,-4.87519 -1.766634,-1.519374 -4.080176,-3.607289 -5.141205,-4.639808 l -1.929145,-1.87731 -0.875898,0.562063 c -4.165147,2.672766 -10.619935,3.408513 -15.758907,1.796271 -1.953095,-0.612742 -3.095599,-1.185396 -4.965427,-2.488811 l -1.485991,-1.035849 -1.220238,1.276739 c -0.671131,0.702206 -3.32328,3.090716 -5.893664,5.307802 -4.963187,4.280995 -6.148299,5.60241 -8.996474,10.031179 -1.032474,1.605449 -3.630636,6.169827 -3.630636,6.378202 0,0.05771 0.630648,0.08267 1.40144,0.05546 0.770792,-0.02721 2.862784,-0.07519 4.648872,-0.106616 l 3.247433,-0.05714 10.573665,9.22056 c 5.815516,5.0713 10.63843,9.20593 10.717587,9.18805 0.07916,-0.0179 4.895002,-4.16433 10.701881,-9.21434 z M 62.009788,76.628759 c 4.39489,-0.901031 6.878969,-2.809004 12.711049,-9.763109 l 3.338868,-3.981228 0.390524,-1.818669 c 2.136421,-9.949306 -0.21773,-17.045435 -7.010788,-21.132662 -0.630015,-0.379065 -1.181912,-0.652781 -1.226435,-0.608258 -0.04453,0.04452 0.477278,0.766777 1.159563,1.605009 2.480918,3.047973 3.628219,5.139532 3.62848,6.61481 l 1.53e-4,0.862202 -2.36795,-2.416449 C 68.44174,41.713044 65.052921,38.897137 61.911095,37.080927 55.723809,33.504218 51.271549,28.51155 49.112339,22.728685 c -0.274651,-0.735582 -0.597558,-1.370152 -0.71757,-1.410156 -0.267391,-0.08913 -2.758233,2.708937 -4.510827,5.067203 -7.174279,9.653612 -9.181328,21.064766 -5.996172,34.091474 0.564616,2.309173 0.621837,2.433903 1.693339,3.691087 1.413485,1.658432 3.634887,2.992465 7.534979,4.525032 2.061644,0.810136 2.299173,0.8408 2.465036,0.318214 0.176893,-0.557344 1.189973,-1.511074 2.003288,-1.885927 0.549374,-0.253204 1.297586,-0.326064 3.410026,-0.332062 2.510936,-0.0071 2.775251,0.02719 3.662694,0.475569 1.61522,0.816093 2.210059,2.120897 1.829441,4.012951 -0.591245,2.939083 -3.502312,3.554015 -10.228035,2.160565 -1.010004,-0.209254 -1.988595,-0.428466 -2.174649,-0.487135 -1.263051,-0.398289 1.28913,1.597904 3.246845,2.539525 2.079557,1.000228 4.032813,1.408826 6.813012,1.425203 1.463166,0.0086 2.948559,-0.103369 3.866042,-0.291469 z M 27.138541,34.445887 C 30.095889,23.578412 36.115449,15.538714 44.37099,11.430308 48.163261,9.5430671 50.275063,9.2224795 58.183922,9.3333976 c 6.309751,0.088491 7.022102,0.1786442 9.665104,1.2231874 3.78485,1.495813 8.461602,5.357493 11.703514,9.663805 3.171973,4.213409 5.696991,9.590614 7.129305,15.182356 0.351931,1.373945 0.70423,2.560257 0.782885,2.636248 0.07865,0.07599 0.09846,-2.166963 0.04402,-4.98434 C 87.40413,27.640933 87.259145,26.521206 86.283981,23.59566 84.03338,16.843733 78.930347,11.130315 72.211834,7.840315 67.229651,5.4005816 61.774856,4.298922 55.675714,4.5006526 48.928697,4.7238121 43.054104,6.5431681 37.693903,10.069602 c -2.2198,1.460389 -6.203313,5.371396 -7.682562,7.54273 -1.203085,1.765961 -2.569745,4.440728 -3.149374,6.163822 -0.805424,2.394317 -0.946773,3.844516 -0.932621,9.568453 0.01173,4.742001 0.04411,5.304705 0.261406,4.542598 0.136414,-0.478422 0.562917,-2.027016 0.947789,-3.441318 z"
     id="path2" /><path
     style="fill:#ffffff;stroke-width:0.193302;-inkscape-stroke:none"
     d="m 53.426945,107.26673 c -1.902098,-1.49833 -3.482651,-2.74815 -3.512339,-2.77737 -0.02969,-0.0292 0.861918,-3.22481 1.981347,-7.10133 1.119428,-3.876518 2.035324,-7.194693 2.035324,-7.373722 0,-0.179029 -0.472424,-0.839386 -1.04983,-1.46746 -1.138022,-1.237883 -1.535055,-1.890248 -1.745716,-2.868385 -0.190017,-0.882281 0.483287,-2.218018 1.407821,-2.792912 0.674139,-0.419194 0.897366,-0.442219 4.287256,-0.442219 4.153042,0 4.596281,0.135855 5.375076,1.64749 0.756413,1.468193 0.41701,2.573026 -1.407879,4.582961 l -1.093696,1.204598 2.042687,7.076563 c 1.123477,3.892106 2.042686,7.192876 2.042686,7.335036 0,0.19983 -3.072238,2.74187 -6.689998,5.53546 -0.136983,0.10578 -1.462919,-0.81797 -3.672739,-2.55871 z"
     id="path3" /></svg>
